<?xml version="1.0" encoding="UTF-8"?>
<svg id="Camada_2" data-name="Camada 2" xmlns="http://www.w3.org/2000/svg" viewBox="0 0 205.81 94.3">
  <defs>
    <style>
      .cls-1 {
        fill: #fff;
      }
    </style>
  </defs>
  <g id="Camada_1-2" data-name="Camada 1">
    <g>
      <g>
        <path class="cls-1" d="M193.54,38.65c.59-.03,1.05-.53,1.03-1.12l-.11-2.58c-.03-.59-.53-1.05-1.12-1.03-.59.03-1.05.53-1.03,1.12l.11,2.58c.03.59.53,1.05,1.12,1.03Z"/>
        <path class="cls-1" d="M204.68,43.71l-2.58.11c-.59.03-1.05.53-1.03,1.12.03.59.53,1.05,1.12,1.03l2.58-.11c.59-.03,1.05-.53,1.03-1.12-.03-.59-.53-1.05-1.12-1.03Z"/>
        <path class="cls-1" d="M201.76,38.48l-1.34,1.68c-.37.46-1.05.54-1.51.17-.46-.37-.54-1.05-.17-1.51l1.34-1.68c.37-.46,1.05-.54,1.51-.17.46.37.54,1.05.17,1.51Z"/>
        <path class="cls-1" d="M72.55,39.39h11.3v2.66h-3.33v15.29h5.32c.23,0,.44-.09.62-.27.18-.18.32-.41.42-.69.1-.28.17-.57.22-.86.05-.29.07-.57.07-.84v-2.66h2.99v7.98h-17.62v-2.66h2.66v-15.29h-2.66v-2.66Z"/>
        <path class="cls-1" d="M92.17,44.71h6.32v9.31c0,.88.08,1.56.24,2.04.16.49.38.82.68,1.01.3.18.7.27,1.21.27.47,0,.94-.2,1.43-.59.49-.39.96-.94,1.39-1.65l.03-7.74h-1.66v-2.66h6.32v12.63h1.66v2.66h-5.16l-1.16-2.26c-.94,1.73-2.49,2.59-4.65,2.59-.78,0-1.46-.11-2.04-.32-.58-.21-1.06-.5-1.43-.87-.37-.37-.67-.84-.9-1.4-.23-.57-.39-1.18-.48-1.83-.09-.65-.14-1.39-.14-2.23v-6.32h-1.66v-2.66Z"/>
        <path class="cls-1" d="M131.73,44.38c.78,0,1.45.11,2.04.32s1.06.5,1.43.87c.37.37.67.84.9,1.4.23.57.39,1.18.48,1.83.09.65.14,1.4.14,2.23v6.32h1.66v2.66h-7.98v-2.66h1.66v-6.65c0-.88-.08-1.56-.24-2.04-.16-.49-.39-.82-.68-1.01-.3-.18-.7-.27-1.21-.27-.48,0-.97.21-1.47.62-.5.42-.98,1-1.43,1.75.03.4.04.83.04,1.29v6.32h1.66v2.66h-7.98v-2.66h1.66v-6.65c0-.88-.08-1.56-.24-2.04-.16-.49-.39-.82-.68-1.01-.3-.18-.7-.27-1.21-.27-.46,0-.94.2-1.43.59-.49.39-.95.94-1.39,1.65l-.04,7.74h1.66v2.66h-7.98v-2.66h1.66v-9.97h-1.66v-2.66h5.16l1.16,2.25c.21-.37.44-.71.71-1,.27-.3.59-.57.96-.81.37-.25.81-.44,1.32-.57.5-.13,1.06-.2,1.65-.2.67,0,1.27.08,1.79.23s.97.38,1.34.67c.37.3.67.65.92,1.06s.44.88.58,1.42c.14-.36.3-.7.49-1.01s.42-.62.71-.92c.29-.3.61-.55.96-.76.35-.21.77-.37,1.26-.5.49-.12,1.02-.19,1.59-.19Z"/>
        <path class="cls-1" d="M139.71,44.71h6.32v12.63h1.66v2.66h-7.98v-2.66h1.66v-9.97h-1.66v-2.66ZM141.82,42.94c-.52-.52-.78-1.15-.78-1.88s.26-1.36.78-1.88c.52-.52,1.15-.78,1.88-.78s1.36.26,1.88.78c.52.52.78,1.15.78,1.88s-.26,1.36-.78,1.88c-.52.52-1.15.78-1.88.78s-1.36-.26-1.88-.78Z"/>
        <path class="cls-1" d="M159.99,44.38c.78,0,1.45.11,2.04.32s1.06.5,1.43.87c.37.37.67.84.9,1.4.23.57.39,1.18.48,1.83.09.65.14,1.4.14,2.23v6.32h1.66v2.66h-7.98v-2.66h1.66v-6.65c0-.88-.08-1.56-.24-2.04-.16-.49-.39-.82-.68-1.01-.3-.18-.7-.27-1.21-.27-.46,0-.94.2-1.43.59-.49.39-.95.94-1.39,1.65l-.04,7.74h1.66v2.66h-7.98v-2.66h1.66v-9.97h-1.66v-2.66h5.16l1.16,2.25c.21-.37.44-.71.71-1,.27-.3.59-.57.96-.81.37-.25.81-.44,1.32-.57.5-.13,1.06-.2,1.65-.2Z"/>
        <path class="cls-1" d="M181.6,49.99v7.36h1.66v2.66h-5.18l-.74-1.73c-.56.81-1.22,1.36-1.96,1.66-.75.3-1.79.45-3.12.45-.69,0-1.34-.12-1.93-.36-.6-.24-1.1-.57-1.52-.99-.42-.42-.75-.91-.98-1.5-.24-.58-.35-1.21-.35-1.87,0-1.15.45-2.1,1.35-2.85s2.04-1.13,3.44-1.13c1.12,0,2.06.11,2.79.32.74.21,1.37.55,1.9,1.02v-3.52c0-.5-.07-.92-.2-1.25s-.34-.59-.61-.77-.58-.31-.91-.38c-.34-.07-.74-.11-1.21-.11-.38,0-.72.08-1.02.24.17.36.26.74.26,1.14,0,.74-.26,1.36-.78,1.88s-1.15.78-1.88.78-1.36-.26-1.88-.78c-.52-.52-.78-1.15-.78-1.88,0-.38.07-.73.22-1.06.15-.33.35-.62.61-.87.22-.23.45-.44.69-.63.24-.19.54-.37.9-.56.36-.19.76-.34,1.18-.46.43-.12.94-.22,1.53-.29.6-.08,1.25-.11,1.96-.11.92,0,1.78.14,2.59.41.81.27,1.51.65,2.09,1.13.59.48,1.05,1.08,1.39,1.78s.51,1.47.51,2.29ZM176.95,56.32v-1.15c-.34-.33-.73-.6-1.16-.83-.43-.22-.83-.34-1.19-.34-.79,0-1.34.13-1.66.39-.32.26-.48.69-.48,1.28,0,.7.14,1.22.42,1.55.28.33.79.5,1.55.5.43,0,.87-.14,1.33-.41.46-.27.86-.61,1.2-1Z"/>
        <path class="cls-1" d="M184.76,44.71h5.16l1.05,2.02c.98-1.57,2.37-2.35,4.16-2.35,1.2,0,2.16.37,2.86,1.11s1.06,1.7,1.06,2.88c0,.74-.26,1.36-.78,1.88-.52.52-1.15.78-1.88.78s-1.37-.26-1.88-.78c-.52-.52-.78-1.15-.78-1.88,0-.3.05-.59.14-.86-.15-.09-.31-.13-.47-.13-.37,0-.76.24-1.15.73-.4.49-.78,1.21-1.14,2.17l-.03,7.07h3.66v2.66h-9.97v-2.66h1.66v-9.97h-1.66v-2.66Z"/>
      </g>
      <g>
        <path class="cls-1" d="M44.16,72.43H13.75c-.96,0-1.74-.78-1.74-1.74s.78-1.74,1.74-1.74h30.4c.96,0,1.74.78,1.74,1.74s-.78,1.74-1.74,1.74Z"/>
        <path class="cls-1" d="M44.16,77.76H13.75c-.96,0-1.74-.78-1.74-1.74s.78-1.74,1.74-1.74h30.4c.96,0,1.74.78,1.74,1.74s-.78,1.74-1.74,1.74Z"/>
        <path class="cls-1" d="M44.16,83.09H13.75c-.96,0-1.74-.78-1.74-1.74s.78-1.74,1.74-1.74h30.4c.96,0,1.74.78,1.74,1.74s-.78,1.74-1.74,1.74Z"/>
        <path class="cls-1" d="M38.32,84.94H15.29c0,.96.78,1.74,1.74,1.74h2.73c.81,4.34,4.62,7.62,9.2,7.62s8.38-3.28,9.2-7.62h2.73c.96,0,1.74-.78,1.74-1.74h-4.3Z"/>
        <g>
          <g>
            <path class="cls-1" d="M51.54,40.76c1.88-3.6,2.9-7.64,2.9-11.79,0-.06,0-.12,0-.19-1.7,1.04-3.55,1.85-5.42,2.33-.8.2-1.61.34-2.42.51,2.05,2.02,3.38,4.11,3.23,6.93,0,.07,0,.14-.02.21,0,.07-.01.14-.02.21,0,.07-.02.14-.03.21,0,.07-.02.14-.03.21-.01.07-.02.14-.04.21-.01.07-.03.14-.04.21-.02.07-.03.14-.05.2-.02.07-.04.14-.05.2-.02.07-.04.13-.06.2-.02.07-.04.13-.07.2-.02.07-.05.13-.07.2-.02.07-.05.13-.08.2-.03.07-.05.13-.08.2-.03.06-.06.13-.09.19-.03.06-.06.13-.09.19-.03.06-.06.13-.1.19-.03.06-.07.13-.1.19-.04.06-.07.12-.11.18-.04.06-.07.12-.11.18-.04.06-.08.12-.12.18-.04.06-.08.12-.12.18-.04.06-.08.12-.13.17-.04.06-.09.11-.13.17-.04.06-.09.11-.14.17-.05.06-.09.11-.14.17-.05.05-.1.11-.15.16-.05.05-.1.11-.15.16-.05.05-.1.1-.15.16-.05.05-.11.1-.16.15-.05.05-.11.1-.16.15-.06.05-.11.1-.17.14-.06.05-.11.09-.17.14-.57.46-1.3.8-1.84,1.28.04.86.55,1.58,1.01,2.31,2.18-1.93,3.98-4.2,5.37-6.69-.15-.15-.28-.32-.4-.49l-.04-.06c.26,0,.51,0,.75,0Z"/>
            <path class="cls-1" d="M42.53,46.67c-.78.2-1.61.29-2.37.53-.2.28-.3.53-.37.86,0,.02.01.04.02.06.21.67.66,1.28.91,1.94.81,2.12.45,4.5-.75,6.44-1.06,1.73-2.86,3.04-4.88,3.76-.55.2-1.14.31-1.69.5.3,1.15,1.31,2.26,2.41,2.88h4.38v-2.92c0-4.14,1.5-8.11,4.17-11.17-.51-.94-1.09-1.88-1.69-2.85-.12-.03-.07-.03-.15-.02Z"/>
            <path class="cls-1" d="M34.12,4.02c-.94-.2-1.89-.35-2.86-.44.17.48.27.96.35,1.46.85-.5,1.67-.83,2.5-1.02Z"/>
            <path class="cls-1" d="M28.98,8.95c.66-1.07,1.01-2.24.98-3.57-.01-.66-.13-1.29-.34-1.9-.2,0-.4,0-.61,0-.02,0-.03,0-.05,0,0,0,0,0,0,0v5.5h0s.02-.02.02-.02Z"/>
            <path class="cls-1" d="M28.98,51.09c.07-.02.14-.03.21-.05.08-.02.17-.05.25-.08.08-.03.16-.06.25-.09.08-.03.16-.06.24-.1.08-.03.16-.07.24-.11.08-.04.15-.08.23-.12.08-.04.15-.08.22-.13.07-.04.14-.09.21-.14,1.31-.9,2.21-2.5,2.41-3.96.31-2.21-.72-4.05-2.19-5.73-.81-.92-1.52-1.8-2.06-2.72l-.02-.04h0v13.25h0s.02,0,.02,0Z"/>
            <path class="cls-1" d="M28.98,27.71s0,0,0,0c.59-.13,1.2-.21,1.8-.27-.84-.8-1.43-1.68-1.81-2.63l-.02-.05h0v2.95h0s.02,0,.02,0Z"/>
            <path class="cls-1" d="M32.71,63.17c-.59-.66-.99-1.45-1.42-2.21-.77,0-1.55-.06-2.32-.18h-.02s0,0,0,0v2.85h4.22c-.16-.15-.31-.3-.46-.46Z"/>
            <path class="cls-1" d="M28.98,58.98c.72.13,1.44.19,2.14.18,2.19-.03,4.39-.73,5.93-2.17,1.32-1.24,2.1-2.87,2.05-4.6-.03-.91-.27-1.76-.71-2.57-.27-.5-.79-1.11-.83-1.67-.03-.42.19-.89.35-1.28.12-.27.24-.64.44-.86.51-.54,2.79-.87,3.62-1.15,3.2-1.06,5.74-3.6,5.71-6.77-.01-1.74-.83-3.26-2.1-4.54-.41,1.15-1.07,2.14-1.96,3.05-1.67,1.64-3.76,2.63-6.26,2.73-.71.03-1.41-.02-2.12-.1.64-.11,1.29-.21,1.92-.38.14-.04.27-.08.41-.12.13-.04.27-.09.4-.13.13-.05.26-.1.39-.15.13-.05.26-.11.39-.17.13-.06.25-.12.38-.18.12-.06.25-.13.37-.19.12-.07.24-.14.36-.21.12-.07.23-.15.35-.22.11-.08.23-.16.34-.24.11-.08.22-.16.33-.25.11-.09.21-.17.31-.26.1-.09.2-.18.3-.27.1-.09.19-.19.29-.28.09-.1.18-.2.27-.3.09-.1.17-.2.26-.31.08-.1.16-.21.24-.32,1.35-1.81,1.98-4.01,1.52-6.17-.45-2.06-1.89-3.89-3.82-5.05-2.5-1.5-5.12-1.58-8.01-1.35,0-.42-.01-.84,0-1.26,2.39-.76,4.83-1.76,5.99-3.93,1.13-2.11.66-4.28-.19-6.39-.42-1.05-1.1-1.89-1.63-2.87.53.48.98,1.06,1.41,1.62,1.42,1.83,2.51,3.71,2.48,5.99-.02,1.82-.86,3.42-2.31,4.69-.23.2-.48.37-.74.54,3.11.69,5.72,2.26,7.39,4.75.1.15.19.3.28.45.09.15.17.31.25.46.08.16.15.32.22.48.07.16.14.32.2.49.06.16.12.33.17.49.05.17.1.33.14.5.04.17.08.34.11.51.03.17.06.34.08.51,1.55-.34,3.08-.75,4.53-1.34,1.29-.53,2.56-1.24,3.7-2.09-.14-1.28-.38-2.53-.71-3.76-.3,1.01-.83,1.98-1.53,2.78.88-2.07,1.18-3.7.12-5.8-.49-.98-1.17-1.8-2.01-2.55-1.88,1.39-3.38,2-5.87,1.78-.53-.05-1.04-.14-1.55-.28,2.58-.2,4.27-.69,5.99-2.52.42-.45.77-.92,1.07-1.42-2.7-3.84-6.43-6.95-10.74-8.88-.96-.25-1.96-.38-2.91-.34-1.63.06-3.22.64-4.34,1.73-.42.41-.65.89-.9,1.4-.55,1.09-1.16,1.45-1.95,1.77h0s0,0,0,0c0,0,0,0,0,0h0s-.02,0-.02,0h0s0,2.04,0,2.04h0s.02,0,.02,0c.03,0,.06,0,.09,0,1.32-.14,2.74-.11,4.05.08-1.5.25-2.87.51-4.13.91h-.02s0,0,0,0v5.31h0s.02-.07.02-.07c.03-.08.05-.16.08-.23.07-.21.15-.42.24-.62.08-.21.18-.41.27-.61.1-.2.2-.4.31-.6-.17.72-.36,1.44-.45,2.18-.02.15-.04.3-.05.45-.01.15-.02.3-.03.45,0,.15,0,.3,0,.45,0,.15,0,.3.02.45,0,.15.02.3.04.45.02.15.04.3.06.45.02.15.05.3.08.44.03.15.06.29.1.44.04.15.08.29.12.44.04.14.09.29.14.43.05.14.11.28.16.42.06.14.12.28.18.42.06.14.13.27.2.41.07.14.14.27.22.4.08.13.16.26.24.39.08.13.17.26.26.38,1.78,2.47,4.87,3.7,7.73,4.9-3.2-.47-6.74-1.75-9.92-.95h-.02s0,0,0,0v7.01h0s.02.04.02.04c.7,1.31,1.7,2.38,3.3,3.54.79.57,1.5.99,2.05,1.79.98-.27,1.91-.83,2.82-1.25-.49,1.12-1.19,1.84-2.35,2.45.02.06.05.12.07.18.02.06.04.12.06.18.02.06.04.12.06.18.02.06.04.12.05.19.02.06.03.12.05.19.02.06.03.13.04.19.01.06.03.13.04.19.01.06.02.13.03.19.01.06.02.13.03.19,0,.06.02.13.02.19,0,.06.01.13.02.19,0,.06,0,.13.01.19,0,.06,0,.13,0,.19,0,.06,0,.13,0,.19,0,.06,0,.13,0,.19,0,.06,0,.13,0,.19,0,.06,0,.13-.01.19,0,.06-.01.13-.02.19,0,.06-.02.13-.02.19,0,.06-.02.13-.03.19-.01.06-.02.13-.04.19-.01.06-.03.13-.04.19-.01.06-.03.13-.05.19-.02.06-.03.12-.05.19-.02.06-.04.12-.06.19-.02.06-.04.12-.06.18-.02.06-.04.12-.07.18-.02.06-.05.12-.07.18-.02.06-.05.12-.08.18-.03.06-.05.12-.08.18-.03.06-.06.12-.09.18-.03.06-.06.12-.09.17-.99,1.85-2.6,3.23-4.77,3.91-.22.07-.45.13-.67.17h-.02s0,0,0,0v5.94h0s.02,0,.02,0Z"/>
          </g>
          <g>
            <path class="cls-1" d="M17.94,56.49c-1.2-1.94-1.56-4.32-.75-6.44.25-.66.71-1.27.91-1.94,0-.02.01-.04.02-.06-.07-.33-.16-.58-.37-.86-.76-.24-1.59-.32-2.37-.53-.08-.01-.03-.01-.15.02-.6.97-1.18,1.91-1.69,2.85,2.67,3.07,4.17,7.03,4.17,11.16v2.93h4.38c1.1-.62,2.11-1.73,2.41-2.88-.55-.19-1.13-.3-1.69-.5-2.02-.73-3.82-2.04-4.88-3.76Z"/>
            <path class="cls-1" d="M26.64,3.58c-.99.09-1.96.23-2.93.43.86.18,1.7.52,2.57,1.03.08-.5.19-.99.35-1.46Z"/>
            <path class="cls-1" d="M11.04,44.29c-.06-.05-.11-.1-.17-.14-.06-.05-.11-.1-.16-.15-.05-.05-.11-.1-.16-.15-.05-.05-.1-.1-.15-.16-.05-.05-.1-.11-.15-.16-.05-.05-.1-.11-.15-.16-.05-.05-.1-.11-.14-.17-.05-.06-.09-.11-.14-.17-.04-.06-.09-.11-.13-.17-.04-.06-.09-.12-.13-.17-.04-.06-.08-.12-.12-.18-.04-.06-.08-.12-.12-.18-.04-.06-.08-.12-.11-.18-.04-.06-.07-.12-.11-.18-.04-.06-.07-.12-.1-.19-.03-.06-.07-.13-.1-.19-.03-.06-.06-.13-.09-.19-.03-.06-.06-.13-.09-.19-.03-.06-.06-.13-.08-.2-.03-.07-.05-.13-.08-.2-.02-.07-.05-.13-.07-.2-.02-.07-.04-.13-.07-.2-.02-.07-.04-.13-.06-.2-.02-.07-.04-.14-.05-.2-.02-.07-.03-.14-.05-.2-.02-.07-.03-.14-.04-.21-.01-.07-.03-.14-.04-.21-.01-.07-.02-.14-.03-.21,0-.07-.02-.14-.03-.21,0-.07-.01-.14-.02-.21,0-.07-.01-.14-.02-.21-.15-2.82,1.18-4.92,3.23-6.93-.81-.17-1.62-.31-2.42-.51-1.87-.48-3.72-1.29-5.42-2.33,0,.06,0,.11,0,.17,0,4.15,1.02,8.2,2.9,11.8.24.01.49.02.75,0l-.04.06c-.12.17-.26.34-.4.49,1.38,2.49,3.18,4.75,5.35,6.68,0,0,.01.01.02.02.46-.73.97-1.45,1.01-2.31-.55-.48-1.27-.81-1.84-1.28-.06-.05-.11-.09-.17-.14Z"/>
            <path class="cls-1" d="M28.95,3.47c-.22,0-.44,0-.65,0-.21.61-.33,1.24-.34,1.9-.02,1.33.32,2.5.98,3.57l.02.02V3.47s0,0-.01,0Z"/>
            <path class="cls-1" d="M26.61,60.96c-.42.76-.83,1.54-1.42,2.21-.14.16-.3.32-.46.46h4.22v-2.85h-.02c-.77.12-1.55.18-2.32.18Z"/>
            <path class="cls-1" d="M27.13,27.45c.61.06,1.21.13,1.8.27,0,0,0,0,0,0h.02s0-2.95,0-2.95l-.02.05c-.38.95-.97,1.83-1.81,2.63Z"/>
            <path class="cls-1" d="M26.87,40.6c-1.47,1.68-2.5,3.52-2.19,5.73.2,1.46,1.1,3.06,2.41,3.96.07.05.14.09.21.14.07.04.15.09.22.13.08.04.15.08.23.12.08.04.16.07.24.11.08.03.16.07.24.1.08.03.16.06.25.09.08.03.17.05.25.08.07.02.14.04.21.05h.02s0-13.25,0-13.25l-.02.04c-.54.92-1.25,1.79-2.06,2.72Z"/>
            <path class="cls-1" d="M26.98,8.44c-.26-.5-.48-.98-.9-1.4-1.12-1.1-2.71-1.67-4.34-1.73-1.14-.05-2.36.15-3.5.51-.73.34-1.45.72-2.15,1.13.3.7.47,1.47.47,2.28,0,3.17-2.57,5.74-5.74,5.74-.98,0-1.9-.25-2.71-.68-.03.04-.05.07-.08.11.31.55.69,1.06,1.14,1.55,1.72,1.83,3.41,2.32,5.99,2.52-.51.14-1.02.23-1.55.28-2.49.22-3.99-.4-5.87-1.78-.85.75-1.52,1.58-2.01,2.55-1.05,2.1-.76,3.73.12,5.8-.72-.82-1.26-1.81-1.55-2.86-.33,1.25-.56,2.53-.69,3.83,1.14.85,2.41,1.57,3.7,2.1,1.45.6,2.98,1,4.53,1.34.02-.17.05-.34.08-.51.03-.17.07-.34.11-.51.04-.17.09-.34.14-.5.05-.17.11-.33.17-.49.06-.16.13-.33.2-.49.07-.16.14-.32.22-.48.08-.16.16-.31.25-.46.09-.15.18-.3.28-.45,1.67-2.48,4.28-4.05,7.39-4.75-.26-.17-.51-.34-.74-.54-1.44-1.27-2.29-2.87-2.31-4.69-.02-2.29,1.06-4.16,2.48-5.99.43-.56.88-1.13,1.41-1.62-.53.98-1.22,1.82-1.63,2.87-.84,2.12-1.31,4.28-.19,6.39,1.16,2.17,3.61,3.17,5.99,3.93.02.42,0,.84,0,1.26-2.89-.23-5.5-.15-8.01,1.35-1.94,1.16-3.38,2.99-3.82,5.05-.47,2.16.16,4.36,1.52,6.17.08.11.16.21.24.32.08.1.17.21.26.31.09.1.18.2.27.3.09.1.19.19.29.28.1.09.2.18.3.27.1.09.21.18.31.26.11.09.21.17.33.25.11.08.22.16.34.24.11.08.23.15.35.22.12.07.24.14.36.21.12.07.24.13.37.19.12.06.25.12.38.18.13.06.26.11.39.17.13.05.26.1.39.15.13.05.27.09.4.13.13.04.27.08.41.12.62.17,1.28.27,1.92.38-.7.08-1.41.13-2.12.1-2.5-.1-4.59-1.09-6.26-2.73-.88-.91-1.55-1.9-1.96-3.05-1.27,1.28-2.09,2.8-2.1,4.54-.02,3.17,2.51,5.71,5.71,6.77.83.28,3.1.61,3.62,1.15.2.21.32.59.44.86.17.38.39.86.35,1.28-.04.56-.56,1.17-.83,1.67-.44.81-.68,1.67-.71,2.57-.05,1.73.73,3.36,2.05,4.6,1.54,1.44,3.74,2.14,5.93,2.17.69,0,1.42-.05,2.14-.18h.02v-5.95h0s-.02,0-.02,0c-.22-.05-.44-.1-.67-.17-2.17-.67-3.78-2.06-4.77-3.91-.03-.06-.06-.12-.09-.17-.03-.06-.06-.12-.09-.18-.03-.06-.05-.12-.08-.18-.03-.06-.05-.12-.08-.18-.02-.06-.05-.12-.07-.18-.02-.06-.04-.12-.07-.18-.02-.06-.04-.12-.06-.18-.02-.06-.04-.12-.06-.19-.02-.06-.03-.12-.05-.19-.02-.06-.03-.12-.05-.19-.01-.06-.03-.13-.04-.19-.01-.06-.02-.13-.04-.19-.01-.06-.02-.13-.03-.19,0-.06-.02-.13-.02-.19,0-.06-.01-.13-.02-.19,0-.06-.01-.13-.01-.19,0-.06,0-.13,0-.19,0-.06,0-.13,0-.19,0-.06,0-.13,0-.19,0-.06,0-.13,0-.19,0-.06,0-.13.01-.19,0-.06.01-.13.02-.19,0-.06.01-.13.02-.19,0-.06.02-.13.03-.19,0-.06.02-.13.03-.19.01-.06.02-.13.04-.19.01-.06.03-.13.04-.19.02-.06.03-.12.05-.19.02-.06.03-.12.05-.19.02-.06.04-.12.06-.18.02-.06.04-.12.06-.18.02-.06.04-.12.07-.18-1.16-.61-1.86-1.33-2.35-2.45.91.42,1.84.98,2.82,1.25.55-.8,1.25-1.22,2.05-1.79,1.6-1.15,2.6-2.23,3.3-3.54l.02-.05v-7.01h-.02c-3.19-.8-6.72.48-9.92.95,2.86-1.2,5.95-2.43,7.73-4.9.09-.13.18-.25.26-.38.08-.13.16-.26.24-.39.08-.13.15-.27.22-.4.07-.14.14-.27.2-.41.06-.14.13-.28.18-.42.06-.14.11-.28.16-.42.05-.14.1-.29.14-.43.04-.14.08-.29.12-.44.04-.15.07-.29.1-.44.03-.15.06-.29.08-.44.02-.15.04-.3.06-.45.02-.15.03-.3.04-.45,0-.15.01-.3.02-.45,0-.15,0-.3,0-.45,0-.15-.01-.3-.03-.45-.01-.15-.03-.3-.05-.45-.09-.73-.28-1.46-.45-2.18.11.2.21.39.31.6.1.2.19.4.27.61.08.21.16.41.24.62.03.08.05.16.08.23l.02.08v-5.31h-.02s0,0,0,0c-1.26-.41-2.64-.66-4.13-.91,1.31-.19,2.73-.21,4.05-.08.03,0,.06,0,.09,0h0s.02,0,.02,0h0v-2.04h-.02c-.79-.32-1.4-.68-1.95-1.77Z"/>
          </g>
          <g>
            <circle class="cls-1" cx="10.82" cy="9.22" r="4.12"/>
            <path class="cls-1" d="M55.62,17.77c-1.47-3.44-3.56-6.53-6.22-9.2-2.66-2.67-5.76-4.77-9.19-6.25C36.64.79,32.88,0,29.01,0c-.02,0-.04,0-.05,0-3.89,0-7.67.76-11.23,2.26-1.38.58-2.7,1.26-3.96,2.04,1.03.61,1.85,1.54,2.33,2.65,3.86-2.27,8.27-3.48,12.87-3.48.02,0,.03,0,.05,0,13.79.03,25.44,11.7,25.43,25.5,0,7.28-3.13,14.22-8.58,19.05-3.6,3.19-5.66,7.81-5.66,12.68v2.92h-22.47v-2.93c0-4.86-2.07-9.49-5.69-12.7-5.44-4.83-8.55-11.78-8.55-19.05,0-5.33,1.63-10.41,4.64-14.68-1.06-.57-1.92-1.46-2.45-2.54-1.36,1.83-2.49,3.81-3.39,5.93-1.51,3.57-2.28,7.37-2.28,11.28,0,4.21.88,8.27,2.62,12.06,1.68,3.67,4.07,6.89,7.09,9.58,2.88,2.56,4.52,6.24,4.52,10.11v6.4h29.42v-6.4c0-3.87,1.64-7.55,4.5-10.08,3.03-2.69,5.42-5.91,7.11-9.58,1.75-3.8,2.63-7.86,2.64-12.07,0-3.87-.77-7.64-2.29-11.2Z"/>
          </g>
        </g>
      </g>
    </g>
  </g>
</svg>