<?xml version="1.0" encoding="UTF-8"?>
<svg id="Camada_2" data-name="Camada 2" xmlns="http://www.w3.org/2000/svg" viewBox="0 0 202.67 204.43">
  <defs>
    <style>
      .cls-1 {
        fill: #f5f7fa;
      }

      .cls-2 {
        fill: #f6b128;
      }

      .cls-3 {
        fill: #192a3d;
      }

      .cls-4 {
        fill: #e99f2f;
      }

      .cls-5 {
        fill: #f5c14e;
      }

      .cls-6 {
        font-family: Poppins-Medium, Poppins;
        font-size: 9.06px;
        font-weight: 500;
      }
    </style>
  </defs>
  <g id="Camada_1-2" data-name="Camada 1">
    <g>
      <ellipse class="cls-1" cx="101.33" cy="102.21" rx="101.33" ry="102.21"/>
      <g>
        <g>
          <path class="cls-3" d="M117.7,94.45h-33.43c-1.06,0-1.91-.86-1.91-1.91s.86-1.91,1.91-1.91h33.43c1.06,0,1.91.86,1.91,1.91s-.86,1.91-1.91,1.91Z"/>
          <path class="cls-3" d="M117.7,100.31h-33.43c-1.06,0-1.91-.86-1.91-1.91s.86-1.91,1.91-1.91h33.43c1.06,0,1.91.86,1.91,1.91s-.86,1.91-1.91,1.91Z"/>
          <path class="cls-3" d="M117.7,106.17h-33.43c-1.06,0-1.91-.86-1.91-1.91s.86-1.91,1.91-1.91h33.43c1.06,0,1.91.86,1.91,1.91s-.86,1.91-1.91,1.91Z"/>
          <path class="cls-3" d="M111.27,108.21h-25.32c0,1.06.86,1.91,1.91,1.91h3c.9,4.77,5.08,8.38,10.12,8.38s9.22-3.61,10.12-8.38h3c1.06,0,1.91-.86,1.91-1.91h-4.73Z"/>
          <g>
            <g>
              <path class="cls-5" d="M125.82,59.62c2.07-3.96,3.19-8.4,3.19-12.96,0-.07,0-.14,0-.2-1.87,1.14-3.9,2.04-5.96,2.56-.88.22-1.78.37-2.66.56,2.25,2.22,3.71,4.52,3.55,7.63,0,.08-.01.15-.02.23,0,.08-.01.15-.02.23,0,.08-.02.15-.03.23-.01.08-.02.15-.04.23-.01.08-.03.15-.04.23-.01.08-.03.15-.05.23-.02.08-.03.15-.05.22-.02.07-.04.15-.06.22-.02.07-.04.15-.07.22-.02.07-.05.15-.07.22-.03.07-.05.15-.08.22-.03.07-.06.14-.08.22-.03.07-.06.14-.09.21-.03.07-.06.14-.1.21-.03.07-.07.14-.1.21-.03.07-.07.14-.11.21-.04.07-.07.14-.11.21-.04.07-.08.14-.12.2-.04.07-.08.13-.12.2-.04.07-.09.13-.13.2-.04.07-.09.13-.14.19-.05.06-.09.13-.14.19-.05.06-.1.13-.15.19-.05.06-.1.12-.15.19-.05.06-.1.12-.16.18-.05.06-.11.12-.16.18-.05.06-.11.12-.17.17-.06.06-.11.11-.17.17-.06.06-.12.11-.17.17-.06.06-.12.11-.18.16-.06.05-.12.11-.18.16-.06.05-.12.1-.19.16-.63.51-1.43.88-2.03,1.4.05.95.6,1.74,1.11,2.54,2.39-2.12,4.38-4.62,5.9-7.36-.16-.17-.31-.35-.44-.54l-.05-.07c.28,0,.56,0,.83-.01Z"/>
              <path class="cls-5" d="M115.9,66.12c-.85.22-1.77.32-2.61.58-.22.31-.33.58-.4.94,0,.02.01.04.02.06.23.74.73,1.41,1.01,2.14.89,2.33.49,4.95-.82,7.08-1.17,1.9-3.15,3.34-5.37,4.14-.61.22-1.25.34-1.85.55.33,1.27,1.44,2.48,2.65,3.17h4.82v-3.22c0-4.56,1.65-8.92,4.58-12.28-.56-1.04-1.19-2.07-1.86-3.13-.13-.03-.08-.03-.17-.02Z"/>
              <path class="cls-5" d="M106.66,19.22c-1.03-.22-2.08-.38-3.14-.49.18.52.3,1.06.39,1.6.93-.55,1.83-.91,2.75-1.12Z"/>
              <path class="cls-5" d="M101,24.64c.72-1.17,1.11-2.47,1.08-3.93-.01-.73-.14-1.42-.37-2.09-.22,0-.44,0-.67,0-.02,0-.04,0-.05,0,0,0,0,0-.01,0v6.05h0s.02-.02.02-.02Z"/>
              <path class="cls-5" d="M101,70.99c.08-.02.15-.04.23-.06.09-.03.18-.05.28-.08.09-.03.18-.06.27-.1.09-.03.18-.07.26-.11.09-.04.17-.08.26-.12.09-.04.17-.09.25-.13.08-.05.16-.09.24-.14.08-.05.16-.1.24-.15,1.44-.99,2.43-2.75,2.65-4.35.34-2.43-.79-4.45-2.41-6.3-.89-1.02-1.67-1.98-2.27-2.99l-.02-.04h0v14.58h0s.02,0,.02,0Z"/>
              <path class="cls-5" d="M101,45.27s0,0,0,0c.65-.15,1.32-.23,1.98-.29-.92-.88-1.57-1.85-1.99-2.89l-.02-.05h0v3.24h0s.02,0,.02,0Z"/>
              <path class="cls-5" d="M105.11,84.26c-.65-.73-1.09-1.59-1.56-2.43-.85,0-1.71-.07-2.56-.2h-.02s0,0,0,0v3.14h4.64c-.18-.16-.34-.33-.5-.51Z"/>
              <path class="cls-5" d="M101,79.66c.79.14,1.59.21,2.35.2,2.41-.03,4.83-.8,6.52-2.39,1.46-1.36,2.31-3.15,2.25-5.06-.03-1-.3-1.93-.78-2.83-.3-.55-.87-1.22-.92-1.83-.04-.46.21-.98.39-1.4.13-.29.26-.71.48-.94.57-.59,3.07-.96,3.98-1.26,3.52-1.17,6.31-3.96,6.28-7.45-.01-1.91-.91-3.58-2.31-4.99-.45,1.26-1.18,2.36-2.15,3.35-1.84,1.81-4.14,2.89-6.89,3.01-.78.03-1.56-.02-2.33-.11.7-.13,1.42-.24,2.11-.42.15-.04.3-.08.45-.13.15-.05.29-.1.44-.15.15-.05.29-.11.43-.17.14-.06.28-.12.42-.18.14-.06.28-.13.42-.2.14-.07.27-.14.41-.21.13-.07.26-.15.39-.23.13-.08.26-.16.38-.24.13-.08.25-.17.37-.26.12-.09.24-.18.36-.27.12-.09.23-.19.34-.29.11-.1.22-.2.33-.3.11-.1.21-.21.32-.31.1-.11.2-.21.3-.33.1-.11.19-.22.28-.34.09-.11.18-.23.27-.35,1.49-1.99,2.18-4.41,1.67-6.78-.49-2.27-2.07-4.28-4.2-5.55-2.75-1.65-5.63-1.74-8.81-1.48,0-.46-.01-.92,0-1.39,2.62-.84,5.32-1.94,6.59-4.33,1.24-2.33.72-4.7-.2-7.03-.46-1.15-1.21-2.08-1.8-3.16.58.53,1.07,1.17,1.55,1.78,1.56,2.01,2.76,4.08,2.73,6.59-.02,2.01-.95,3.76-2.54,5.16-.25.22-.53.41-.81.6,3.42.76,6.29,2.49,8.13,5.22.11.16.21.33.31.5.1.17.19.34.28.51.09.17.17.35.25.52.08.18.15.35.21.53.07.18.13.36.18.54.06.18.11.37.15.55.04.19.08.37.12.56.03.19.06.38.08.56,1.7-.37,3.38-.82,4.98-1.48,1.42-.58,2.81-1.36,4.07-2.3-.15-1.41-.42-2.79-.78-4.13-.33,1.12-.91,2.18-1.68,3.05.97-2.28,1.29-4.07.14-6.38-.54-1.08-1.28-1.98-2.21-2.81-2.07,1.52-3.72,2.2-6.45,1.96-.59-.05-1.14-.15-1.7-.31,2.84-.22,4.69-.76,6.59-2.77.46-.49.85-1.01,1.17-1.56-2.97-4.23-7.07-7.64-11.81-9.76-1.06-.28-2.15-.42-3.2-.38-1.79.07-3.54.7-4.77,1.91-.46.45-.71.98-.99,1.54-.61,1.2-1.28,1.6-2.15,1.94h0s0,0,0,0c0,0,0,0,0,0h0s-.02,0-.02,0h0s0,2.24,0,2.24h0s.02,0,.02,0c.03,0,.06,0,.09-.01,1.45-.15,3.01-.13,4.45.08-1.65.28-3.16.56-4.55,1h-.02s0,0,0,0v5.84h0s.02-.08.02-.08c.03-.09.06-.17.09-.26.08-.23.17-.46.26-.68.09-.23.19-.45.3-.67.11-.22.22-.44.34-.65-.19.79-.39,1.59-.49,2.4-.02.16-.04.33-.05.49-.01.16-.02.33-.03.49,0,.16,0,.33,0,.49,0,.16,0,.33.02.49,0,.16.02.33.04.49.02.16.04.33.06.49.03.16.05.33.09.49.03.16.07.32.11.48.04.16.09.32.13.48.05.16.1.32.16.47.06.16.12.31.18.47.06.15.13.31.2.46.07.15.14.3.22.45.08.15.16.3.24.44.08.15.17.29.26.43.09.14.19.28.29.42,1.96,2.72,5.36,4.07,8.5,5.39-3.52-.52-7.41-1.92-10.91-1.05h-.02s0,0,0,0v7.71h0s.02.05.02.05c.78,1.44,1.87,2.62,3.63,3.89.87.63,1.65,1.09,2.25,1.97,1.07-.29,2.1-.91,3.1-1.37-.54,1.24-1.31,2.02-2.59,2.7.03.07.05.13.07.2.02.07.05.13.07.2.02.07.04.14.06.2.02.07.04.14.06.2.02.07.04.14.05.21.02.07.03.14.05.21.01.07.03.14.04.21.01.07.02.14.04.21.01.07.02.14.03.21,0,.07.02.14.02.21,0,.07.01.14.02.21,0,.07,0,.14.01.21,0,.07,0,.14,0,.21,0,.07,0,.14,0,.21,0,.07,0,.14,0,.21,0,.07,0,.14-.01.21,0,.07,0,.14-.02.21,0,.07-.01.14-.02.21,0,.07-.02.14-.03.21-.01.07-.02.14-.03.21-.01.07-.02.14-.04.21-.01.07-.03.14-.04.21-.02.07-.03.14-.05.21-.02.07-.04.14-.06.2-.02.07-.04.14-.06.2-.02.07-.04.13-.07.2-.02.07-.05.13-.07.2-.02.07-.05.13-.08.2-.03.07-.05.13-.08.2-.03.07-.06.13-.09.2-.03.06-.06.13-.09.19-.03.06-.07.13-.1.19-1.09,2.04-2.86,3.56-5.25,4.3-.25.08-.49.14-.73.19h-.02s0,0,0,0v6.54h0s.02,0,.02,0Z"/>
            </g>
            <g>
              <path class="cls-4" d="M88.86,76.92c-1.31-2.13-1.71-4.75-.82-7.08.28-.73.78-1.4,1.01-2.14,0-.02.01-.04.02-.06-.07-.36-.18-.63-.4-.94-.83-.26-1.75-.36-2.61-.58-.09-.01-.03-.01-.17.02-.67,1.07-1.3,2.1-1.86,3.14,2.94,3.38,4.58,7.74,4.58,12.28v3.22h4.82c1.21-.68,2.32-1.9,2.65-3.17-.6-.21-1.25-.34-1.85-.55-2.22-.8-4.2-2.24-5.37-4.14Z"/>
              <path class="cls-4" d="M98.44,18.73c-1.09.1-2.16.26-3.22.47.94.2,1.87.57,2.83,1.13.09-.55.21-1.08.39-1.61Z"/>
              <path class="cls-4" d="M81.27,63.5c-.06-.05-.12-.11-.18-.16-.06-.05-.12-.11-.18-.16-.06-.06-.12-.11-.17-.17-.06-.06-.11-.11-.17-.17-.06-.06-.11-.12-.17-.17-.05-.06-.11-.12-.16-.18-.05-.06-.1-.12-.16-.18-.05-.06-.1-.12-.15-.19-.05-.06-.1-.13-.15-.19-.05-.06-.09-.13-.14-.19-.05-.06-.09-.13-.14-.19-.04-.07-.09-.13-.13-.2-.04-.07-.08-.13-.12-.2-.04-.07-.08-.14-.12-.2-.04-.07-.08-.14-.11-.21-.04-.07-.07-.14-.11-.21-.03-.07-.07-.14-.1-.21-.03-.07-.07-.14-.1-.21-.03-.07-.06-.14-.09-.21-.03-.07-.06-.14-.08-.22-.03-.07-.05-.15-.08-.22-.03-.07-.05-.15-.07-.22-.02-.07-.05-.15-.07-.22-.02-.07-.04-.15-.06-.22-.02-.07-.04-.15-.05-.22-.02-.07-.03-.15-.05-.23-.01-.08-.03-.15-.04-.23-.01-.08-.02-.15-.04-.23-.01-.08-.02-.15-.03-.23,0-.08-.02-.15-.02-.23,0-.08-.01-.15-.02-.23-.16-3.11,1.3-5.41,3.55-7.63-.89-.19-1.79-.34-2.66-.56-2.05-.52-4.09-1.42-5.96-2.56,0,.06,0,.12,0,.19,0,4.57,1.12,9.02,3.19,12.98.27.01.54.02.83.01l-.05.07c-.13.19-.28.37-.44.54,1.52,2.73,3.5,5.22,5.88,7.34,0,0,.02.01.02.02.51-.81,1.06-1.6,1.11-2.55-.6-.52-1.4-.89-2.03-1.4-.06-.05-.13-.1-.19-.16Z"/>
              <path class="cls-4" d="M100.97,18.62c-.24,0-.48,0-.72,0-.23.67-.36,1.36-.37,2.09-.03,1.46.36,2.75,1.08,3.93l.02.02v-6.05s0,0-.01,0Z"/>
              <path class="cls-4" d="M98.4,81.84c-.46.83-.91,1.7-1.56,2.43-.16.18-.33.35-.5.51h4.64v-3.14h-.02c-.85.13-1.7.2-2.56.2Z"/>
              <path class="cls-4" d="M98.97,44.98c.67.07,1.33.15,1.98.29,0,0,0,0,0,0h.02s0-3.24,0-3.24l-.02.05c-.42,1.05-1.07,2.01-1.99,2.89Z"/>
              <path class="cls-4" d="M98.69,59.44c-1.62,1.85-2.75,3.87-2.41,6.3.22,1.6,1.21,3.36,2.65,4.35.08.05.16.1.24.15.08.05.16.1.24.14.08.05.17.09.25.13.09.04.17.08.26.12.09.04.18.07.26.11.09.03.18.07.27.1.09.03.18.06.28.08.08.02.15.04.23.06h.02s0-14.57,0-14.57l-.02.04c-.6,1.01-1.38,1.97-2.27,2.99Z"/>
              <path class="cls-4" d="M98.81,24.07c-.28-.55-.53-1.08-.99-1.54-1.23-1.2-2.98-1.84-4.77-1.91-1.26-.05-2.59.17-3.85.57-.81.37-1.6.79-2.37,1.24.33.77.52,1.61.52,2.5,0,3.49-2.83,6.32-6.32,6.32-1.08,0-2.09-.27-2.98-.75-.03.04-.06.08-.08.12.34.6.75,1.17,1.25,1.7,1.89,2.01,3.75,2.55,6.59,2.77-.56.15-1.12.25-1.7.31-2.73.24-4.38-.44-6.45-1.96-.93.83-1.68,1.73-2.21,2.81-1.16,2.31-.84,4.11.14,6.38-.79-.9-1.38-1.99-1.71-3.14-.36,1.37-.61,2.78-.76,4.21,1.25.94,2.65,1.72,4.07,2.31,1.6.66,3.28,1.1,4.98,1.48.02-.19.05-.38.08-.56.03-.19.07-.37.12-.56.04-.19.09-.37.15-.55.06-.18.12-.36.18-.54.07-.18.14-.36.21-.53.08-.18.16-.35.25-.52.09-.17.18-.34.28-.51.1-.17.2-.33.31-.5,1.84-2.73,4.71-4.46,8.13-5.22-.29-.19-.56-.37-.81-.6-1.59-1.4-2.52-3.15-2.54-5.16-.02-2.51,1.17-4.58,2.73-6.59.47-.61.97-1.25,1.55-1.78-.59,1.08-1.34,2-1.8,3.16-.93,2.33-1.44,4.7-.2,7.03,1.27,2.39,3.97,3.49,6.59,4.33.02.46,0,.92,0,1.39-3.17-.26-6.05-.17-8.81,1.48-2.13,1.27-3.71,3.28-4.2,5.55-.51,2.37.18,4.8,1.67,6.78.09.12.18.23.27.35.09.11.19.23.28.34.1.11.2.22.3.33.1.11.21.21.32.31.11.1.22.2.33.3.11.1.23.19.34.29.12.09.24.18.36.27.12.09.25.18.37.26.13.08.25.17.38.24.13.08.26.16.39.23.13.07.27.15.41.21.14.07.28.13.42.2.14.06.28.12.42.18.14.06.29.11.43.17.15.05.29.1.44.15.15.05.3.09.45.13.69.19,1.4.3,2.11.42-.77.09-1.55.15-2.33.11-2.75-.11-5.05-1.2-6.89-3.01-.97-1-1.7-2.09-2.15-3.35-1.4,1.41-2.3,3.08-2.31,4.99-.02,3.48,2.77,6.28,6.28,7.45.91.3,3.41.67,3.98,1.26.22.23.36.65.48.94.18.42.43.95.39,1.4-.05.62-.62,1.28-.92,1.83-.48.89-.75,1.83-.78,2.83-.06,1.9.8,3.69,2.25,5.06,1.69,1.58,4.12,2.36,6.52,2.39.76,0,1.56-.06,2.35-.2h.02v-6.54h0s-.02,0-.02,0c-.24-.05-.49-.11-.73-.19-2.39-.74-4.16-2.26-5.25-4.3-.03-.06-.07-.13-.1-.19-.03-.06-.06-.13-.09-.19-.03-.06-.06-.13-.09-.2-.03-.07-.06-.13-.08-.2-.03-.07-.05-.13-.08-.2-.03-.07-.05-.13-.07-.2-.02-.07-.05-.13-.07-.2-.02-.07-.04-.14-.06-.2-.02-.07-.04-.14-.06-.2-.02-.07-.03-.14-.05-.21-.02-.07-.03-.14-.04-.21-.01-.07-.03-.14-.04-.21-.01-.07-.02-.14-.03-.21-.01-.07-.02-.14-.03-.21,0-.07-.02-.14-.02-.21,0-.07-.01-.14-.02-.21,0-.07,0-.14-.01-.21,0-.07,0-.14,0-.21,0-.07,0-.14,0-.21,0-.07,0-.14,0-.21,0-.07,0-.14.01-.21,0-.07.01-.14.02-.21,0-.07.02-.14.02-.21,0-.07.02-.14.03-.21.01-.07.02-.14.04-.21.01-.07.03-.14.04-.21.01-.07.03-.14.05-.21.02-.07.03-.14.05-.21.02-.07.04-.14.06-.2.02-.07.04-.14.06-.2.02-.07.05-.13.07-.2.02-.07.05-.13.07-.2-1.28-.68-2.04-1.46-2.59-2.7,1,.46,2.02,1.08,3.1,1.37.6-.88,1.38-1.34,2.25-1.97,1.76-1.27,2.85-2.45,3.63-3.89l.02-.05v-7.71h-.02c-3.5-.88-7.39.53-10.91,1.04,3.15-1.32,6.54-2.67,8.5-5.39.1-.14.19-.28.29-.42.09-.14.18-.29.26-.43.08-.15.17-.29.24-.44.08-.15.15-.3.22-.45.07-.15.14-.3.2-.46.06-.15.12-.31.18-.47.06-.16.11-.31.16-.47.05-.16.09-.32.13-.48.04-.16.08-.32.11-.48.03-.16.06-.32.09-.49.03-.16.05-.33.06-.49.02-.16.03-.33.04-.49,0-.16.02-.33.02-.49,0-.16,0-.33,0-.49,0-.16-.02-.33-.03-.49-.01-.16-.03-.33-.05-.49-.1-.81-.3-1.6-.49-2.4.12.22.23.43.34.65.11.22.21.44.3.67.09.23.18.45.26.68.03.09.06.17.09.26l.02.08v-5.84h-.02s0,0,0,0c-1.39-.45-2.9-.73-4.55-1,1.44-.21,3-.23,4.45-.08.03,0,.06,0,.09.01h0s.02,0,.02,0h0v-2.24h-.02c-.87-.35-1.54-.75-2.15-1.95Z"/>
            </g>
            <g>
              <circle class="cls-3" cx="81.03" cy="24.94" r="4.53"/>
              <path class="cls-3" d="M130.3,34.34c-1.61-3.78-3.92-7.19-6.84-10.12-2.93-2.94-6.33-5.25-10.11-6.87-3.92-1.68-8.06-2.54-12.32-2.55-.02,0-.04,0-.06,0-4.28,0-8.44.84-12.36,2.49-1.52.64-2.97,1.39-4.36,2.24,1.13.68,2.03,1.7,2.56,2.92,4.25-2.5,9.1-3.83,14.16-3.83.02,0,.04,0,.05,0,15.17.03,27.98,12.87,27.97,28.04,0,8-3.44,15.64-9.44,20.95-3.96,3.51-6.23,8.59-6.23,13.94v3.22h-24.72v-3.22c0-5.34-2.28-10.43-6.26-13.97-5.98-5.32-9.41-12.95-9.41-20.95,0-5.86,1.79-11.45,5.11-16.14-1.16-.62-2.11-1.6-2.69-2.79-1.49,2.01-2.74,4.19-3.72,6.52-1.66,3.93-2.51,8.11-2.51,12.41,0,4.63.97,9.09,2.89,13.27,1.85,4.03,4.48,7.58,7.8,10.54,3.16,2.81,4.98,6.86,4.98,11.11v7.04h32.36v-7.04c0-4.26,1.8-8.3,4.94-11.09,3.33-2.96,5.97-6.5,7.82-10.54,1.92-4.18,2.9-8.64,2.9-13.27,0-4.25-.84-8.4-2.52-12.32Z"/>
            </g>
          </g>
        </g>
        <g>
          <g>
            <path class="cls-3" d="M165.03,130.39c.65-.03,1.16-.58,1.13-1.23l-.12-2.84c-.03-.65-.58-1.16-1.23-1.13-.65.03-1.16.58-1.13,1.23l.12,2.84c.03.65.58,1.16,1.23,1.13Z"/>
            <path class="cls-3" d="M177.28,135.95l-2.84.12c-.65.03-1.16.58-1.13,1.23.03.65.58,1.16,1.23,1.13l2.84-.12c.65-.03,1.16-.58,1.13-1.23-.03-.65-.58-1.16-1.23-1.13Z"/>
            <path class="cls-3" d="M174.06,130.2l-1.48,1.85c-.41.51-1.15.59-1.66.18-.51-.41-.59-1.15-.18-1.66l1.48-1.85c.41-.51,1.15-.59,1.66-.18.51.41.59,1.15.18,1.66Z"/>
            <path class="cls-3" d="M31.97,131.21h12.43v2.93h-3.66v16.82h5.85c.26,0,.48-.1.69-.3.2-.2.35-.45.46-.76.11-.31.19-.62.24-.94.05-.32.08-.62.08-.92v-2.93h3.29v8.78h-19.38v-2.92h2.93v-16.82h-2.93v-2.93Z"/>
            <path class="cls-3" d="M53.54,137.06h6.95v10.24c0,.96.09,1.71.26,2.25.17.54.42.91.75,1.11.33.2.77.3,1.33.3.51,0,1.04-.22,1.58-.65.54-.43,1.05-1.04,1.53-1.81l.04-8.51h-1.83v-2.92h6.95v13.89h1.83v2.92h-5.68l-1.28-2.49c-1.03,1.9-2.73,2.85-5.11,2.85-.85,0-1.6-.12-2.24-.35-.64-.23-1.16-.55-1.57-.96-.41-.4-.74-.92-.99-1.54-.25-.62-.43-1.29-.53-2.01-.1-.72-.15-1.53-.15-2.45v-6.95h-1.83v-2.92Z"/>
            <path class="cls-3" d="M97.05,136.69c.85,0,1.6.12,2.24.35s1.16.55,1.57.96c.41.4.74.92.99,1.54.25.63.43,1.3.53,2.01.1.72.15,1.53.15,2.45v6.95h1.83v2.92h-8.78v-2.92h1.83v-7.31c0-.96-.09-1.71-.26-2.25-.17-.54-.42-.9-.75-1.11-.33-.2-.77-.3-1.33-.3-.52,0-1.06.23-1.62.69-.56.46-1.08,1.1-1.57,1.92.03.44.05.91.05,1.42v6.95h1.83v2.92h-8.78v-2.92h1.83v-7.31c0-.96-.09-1.71-.26-2.25-.17-.54-.42-.9-.75-1.11-.33-.2-.77-.3-1.33-.3-.51,0-1.04.22-1.57.65-.54.43-1.04,1.04-1.53,1.81l-.05,8.51h1.83v2.92h-8.78v-2.92h1.83v-10.97h-1.83v-2.92h5.68l1.28,2.48c.23-.41.49-.78.78-1.1.3-.33.65-.63,1.06-.9.41-.27.89-.48,1.45-.63.55-.15,1.16-.22,1.82-.22.74,0,1.4.08,1.97.25s1.07.41,1.48.74c.4.33.74.71,1.01,1.16s.48.97.64,1.56c.15-.4.33-.77.53-1.12s.46-.68.78-1.01c.32-.33.67-.6,1.06-.83.39-.23.85-.41,1.38-.55.54-.14,1.12-.21,1.75-.21Z"/>
            <path class="cls-3" d="M105.82,137.06h6.95v13.89h1.83v2.92h-8.78v-2.92h1.83v-10.97h-1.83v-2.92ZM108.14,135.11c-.57-.57-.85-1.26-.85-2.07s.28-1.5.85-2.07c.57-.57,1.26-.85,2.07-.85s1.5.28,2.07.85c.57.57.85,1.26.85,2.07s-.28,1.5-.85,2.07c-.57.57-1.26.85-2.07.85s-1.5-.28-2.07-.85Z"/>
            <path class="cls-3" d="M128.13,136.69c.85,0,1.6.12,2.24.35s1.16.55,1.57.96c.41.4.74.92.99,1.54.25.63.43,1.3.53,2.01.1.72.15,1.53.15,2.45v6.95h1.83v2.92h-8.78v-2.92h1.83v-7.31c0-.96-.09-1.71-.26-2.25-.17-.54-.42-.9-.75-1.11-.33-.2-.77-.3-1.33-.3-.51,0-1.04.22-1.57.65-.54.43-1.04,1.04-1.53,1.81l-.05,8.51h1.83v2.92h-8.78v-2.92h1.83v-10.97h-1.83v-2.92h5.68l1.28,2.48c.23-.41.49-.78.78-1.1.3-.33.65-.63,1.06-.9.41-.27.89-.48,1.45-.63.55-.15,1.16-.22,1.82-.22Z"/>
            <path class="cls-3" d="M151.89,142.86v8.09h1.83v2.92h-5.69l-.81-1.9c-.62.89-1.34,1.5-2.16,1.83-.82.33-1.96.49-3.43.49-.76,0-1.47-.13-2.13-.4-.66-.27-1.21-.63-1.67-1.08-.46-.46-.82-1.01-1.08-1.65-.26-.64-.39-1.33-.39-2.06,0-1.26.49-2.31,1.48-3.14s2.25-1.25,3.78-1.25c1.24,0,2.26.12,3.07.35.81.23,1.51.61,2.08,1.12v-3.88c0-.55-.08-1.01-.22-1.38s-.37-.65-.67-.85-.63-.34-1.01-.42c-.37-.08-.82-.12-1.33-.12-.41,0-.79.09-1.12.27.19.4.28.81.28,1.25,0,.81-.28,1.5-.85,2.07s-1.26.85-2.07.85-1.5-.29-2.07-.85c-.57-.57-.85-1.26-.85-2.07,0-.41.08-.8.24-1.17.16-.37.39-.69.67-.96.24-.26.5-.49.76-.69.26-.2.59-.41.99-.61.4-.2.83-.37,1.3-.51.47-.13,1.03-.24,1.69-.32.66-.08,1.37-.12,2.15-.12,1.01,0,1.96.15,2.85.45.89.3,1.66.71,2.3,1.24.65.53,1.15,1.18,1.53,1.96s.56,1.61.56,2.52ZM146.78,149.82v-1.26c-.38-.36-.8-.66-1.27-.91-.47-.25-.91-.37-1.31-.37-.87,0-1.47.14-1.83.43-.35.29-.53.76-.53,1.4,0,.77.15,1.34.46,1.71.31.37.87.55,1.7.55.47,0,.96-.15,1.47-.45.51-.3.95-.67,1.32-1.1Z"/>
            <path class="cls-3" d="M155.37,137.06h5.68l1.15,2.22c1.08-1.72,2.6-2.59,4.58-2.59,1.32,0,2.37.41,3.15,1.22s1.17,1.87,1.17,3.17c0,.81-.28,1.5-.85,2.07-.57.57-1.26.85-2.07.85s-1.5-.29-2.07-.85c-.57-.57-.85-1.26-.85-2.07,0-.33.05-.65.16-.95-.16-.1-.34-.15-.52-.15-.41,0-.83.27-1.27.8-.44.53-.85,1.33-1.26,2.39l-.04,7.78h4.02v2.92h-10.97v-2.92h1.83v-10.97h-1.83v-2.92Z"/>
          </g>
          <text class="cls-6" transform="translate(45.57 168.96)"><tspan class="cls-4" x="0" y="0">Plataforma</tspan><tspan class="cls-2" x="51.26" y="0"> </tspan><tspan class="cls-5" x="53.61" y="0">educacional</tspan></text>
        </g>
      </g>
    </g>
  </g>
</svg>