<?xml version="1.0" encoding="UTF-8"?>
<svg id="Camada_2" data-name="Camada 2" xmlns="http://www.w3.org/2000/svg" viewBox="0 0 187.42 189.49">
  <defs>
    <style>
      .cls-1 {
        fill: #f5f7fa;
      }

      .cls-2 {
        fill: #192a3d;
      }

      .cls-3 {
        fill: #e99f2f;
      }

      .cls-4 {
        fill: #f5c14e;
      }
    </style>
  </defs>
  <g id="Camada_1-2" data-name="Camada 1">
    <g>
      <ellipse class="cls-1" cx="93.71" cy="94.75" rx="93.71" ry="94.75"/>
      <g>
        <path class="cls-2" d="M117.52,134.35h-47.62c-1.5,0-2.72-1.22-2.72-2.72s1.22-2.72,2.72-2.72h47.62c1.5,0,2.72,1.22,2.72,2.72s-1.22,2.72-2.72,2.72Z"/>
        <path class="cls-2" d="M117.52,142.7h-47.62c-1.5,0-2.72-1.22-2.72-2.72s1.22-2.72,2.72-2.72h47.62c1.5,0,2.72,1.22,2.72,2.72s-1.22,2.72-2.72,2.72Z"/>
        <path class="cls-2" d="M117.52,151.04h-47.62c-1.5,0-2.72-1.22-2.72-2.72s1.22-2.72,2.72-2.72h47.62c1.5,0,2.72,1.22,2.72,2.72s-1.22,2.72-2.72,2.72Z"/>
        <path class="cls-2" d="M108.37,153.95h-36.07c0,1.5,1.22,2.72,2.72,2.72h4.27c1.28,6.8,7.24,11.94,14.41,11.94s13.13-5.14,14.41-11.94h4.27c1.5,0,2.72-1.22,2.72-2.72h-6.74Z"/>
        <g>
          <g>
            <path class="cls-4" d="M129.09,84.74c2.95-5.64,4.54-11.97,4.55-18.47,0-.1,0-.19,0-.29-2.66,1.62-5.56,2.9-8.49,3.65-1.25.32-2.53.53-3.79.8,3.21,3.16,5.29,6.44,5.06,10.86,0,.11-.01.22-.02.33,0,.11-.02.22-.03.33-.01.11-.03.22-.04.32-.02.11-.03.22-.05.32-.02.11-.04.22-.06.32-.02.11-.04.21-.07.32-.02.11-.05.21-.08.32-.03.11-.06.21-.09.32-.03.11-.06.21-.09.32-.03.1-.07.21-.1.31-.04.1-.07.21-.11.31-.04.1-.08.21-.12.31-.04.1-.08.2-.13.31-.04.1-.09.2-.14.3-.05.1-.1.2-.15.3-.05.1-.1.2-.15.3-.05.1-.11.2-.16.29-.06.1-.11.19-.17.29-.06.1-.12.19-.18.29-.06.09-.12.19-.18.28-.06.09-.13.19-.19.28-.07.09-.13.18-.2.27-.07.09-.14.18-.21.27-.07.09-.14.18-.21.26-.07.09-.15.17-.22.26-.08.09-.15.17-.23.25-.08.08-.16.17-.24.25-.08.08-.16.16-.24.24-.08.08-.17.16-.25.24-.08.08-.17.16-.26.23-.09.08-.17.15-.26.23-.09.07-.18.15-.27.22-.9.73-2.03,1.26-2.89,2,.07,1.35.86,2.47,1.58,3.62,3.41-3.03,6.24-6.58,8.41-10.49-.23-.24-.44-.5-.63-.77l-.07-.1c.4.01.8,0,1.18-.02Z"/>
            <path class="cls-4" d="M114.97,93.99c-1.22.32-2.53.46-3.71.82-.32.44-.47.83-.57,1.34,0,.03.02.06.03.09.33,1.05,1.04,2,1.43,3.04,1.26,3.32.7,7.05-1.17,10.09-1.67,2.7-4.48,4.76-7.65,5.89-.87.31-1.78.48-2.64.79.48,1.8,2.05,3.54,3.78,4.51h6.87v-4.58c0-6.49,2.35-12.7,6.53-17.49-.8-1.48-1.7-2.95-2.65-4.46-.19-.05-.11-.05-.24-.03Z"/>
            <path class="cls-4" d="M101.81,27.19c-1.47-.32-2.96-.55-4.47-.69.26.74.42,1.51.55,2.28,1.33-.78,2.61-1.3,3.92-1.59Z"/>
            <path class="cls-4" d="M93.74,34.91c1.03-1.67,1.57-3.51,1.54-5.59-.02-1.03-.2-2.03-.53-2.98-.32,0-.63-.01-.95-.01-.02,0-.05,0-.07,0,0,0-.01,0-.02,0v8.62h0s.03-.03.03-.03Z"/>
            <path class="cls-4" d="M93.74,100.92c.11-.03.22-.05.33-.08.13-.04.26-.08.39-.12.13-.04.26-.09.39-.14.13-.05.25-.1.38-.15.12-.05.25-.11.37-.17.12-.06.24-.12.36-.19.12-.06.23-.13.35-.2.11-.07.23-.14.34-.22,2.06-1.41,3.46-3.92,3.77-6.2.48-3.46-1.13-6.34-3.44-8.98-1.27-1.45-2.38-2.82-3.23-4.26l-.03-.05h0v20.76h0s.03,0,.03,0Z"/>
            <path class="cls-4" d="M93.74,64.3s0,0,0,0c.93-.21,1.88-.32,2.82-.42-1.31-1.25-2.24-2.63-2.83-4.12l-.03-.07h0v4.62h0s.03,0,.03,0Z"/>
            <path class="cls-4" d="M99.6,119.84c-.92-1.04-1.56-2.27-2.22-3.45-1.21,0-2.43-.1-3.64-.28h-.03s0,0,0,0v4.47h6.61c-.25-.23-.49-.47-.72-.73Z"/>
            <path class="cls-4" d="M93.74,113.28c1.13.2,2.26.3,3.35.29,3.43-.04,6.88-1.15,9.29-3.4,2.07-1.94,3.29-4.49,3.21-7.2-.04-1.42-.43-2.75-1.11-4.03-.42-.78-1.24-1.73-1.31-2.61-.05-.65.29-1.4.56-2,.18-.42.37-1.01.69-1.34.81-.84,4.37-1.36,5.67-1.79,5.01-1.66,8.98-5.64,8.95-10.61-.02-2.72-1.3-5.1-3.29-7.11-.64,1.8-1.68,3.36-3.06,4.78-2.62,2.58-5.89,4.12-9.81,4.28-1.11.04-2.22-.03-3.31-.16,1-.18,2.02-.34,3-.6.21-.06.43-.12.64-.19.21-.07.42-.14.63-.21.21-.07.41-.15.62-.24.2-.08.4-.17.6-.26.2-.09.4-.18.59-.28.19-.1.39-.2.58-.31.19-.11.38-.21.56-.33.18-.11.37-.23.55-.35.18-.12.36-.24.53-.37.17-.13.34-.26.51-.39.17-.13.33-.27.49-.41.16-.14.32-.28.47-.43.15-.15.3-.29.45-.45.15-.15.29-.31.43-.46.14-.16.27-.32.4-.48.13-.16.26-.33.38-.5,2.12-2.83,3.11-6.28,2.38-9.66-.7-3.23-2.95-6.09-5.99-7.91-3.92-2.35-8.02-2.47-12.55-2.11,0-.66-.02-1.32,0-1.97,3.74-1.2,7.57-2.76,9.39-6.16,1.77-3.31,1.03-6.7-.29-10.01-.65-1.64-1.72-2.96-2.56-4.49.83.76,1.53,1.66,2.21,2.53,2.22,2.86,3.92,5.81,3.89,9.39-.03,2.86-1.35,5.36-3.61,7.35-.36.32-.75.59-1.16.85,4.87,1.09,8.95,3.54,11.58,7.43.15.23.3.47.44.71.14.24.27.48.4.73.12.25.24.49.35.75.11.25.21.51.31.76.09.26.18.51.26.77.08.26.15.52.21.79.06.26.12.53.17.8.05.27.09.53.12.8,2.43-.53,4.82-1.17,7.1-2.1,2.02-.83,4.01-1.94,5.79-3.28-.22-2-.59-3.97-1.11-5.88-.47,1.59-1.29,3.1-2.4,4.35,1.39-3.25,1.84-5.8.2-9.09-.77-1.53-1.83-2.83-3.15-4-2.95,2.17-5.3,3.14-9.19,2.79-.83-.07-1.62-.22-2.43-.43,4.04-.31,6.68-1.09,9.38-3.95.66-.7,1.21-1.44,1.67-2.23-4.23-6.02-10.07-10.88-16.82-13.9-1.51-.39-3.07-.6-4.55-.54-2.56.1-5.05,1-6.79,2.72-.66.65-1.01,1.4-1.41,2.19-.87,1.71-1.82,2.27-3.06,2.77h0s0,0,0,0c0,0,0,0,0,0h0s-.03,0-.03,0h0s0,3.19,0,3.19h0s.03,0,.03,0c.04,0,.09-.01.13-.02,2.07-.22,4.29-.18,6.34.12-2.35.39-4.5.8-6.48,1.43h-.03s0,.01,0,.01v8.32h0s.03-.12.03-.12c.04-.12.08-.25.12-.37.11-.33.24-.65.37-.97.13-.32.27-.64.43-.95.15-.31.31-.63.48-.93-.27,1.13-.56,2.26-.7,3.41-.03.23-.06.47-.08.7-.02.23-.03.47-.04.7,0,.23-.01.47,0,.7,0,.23.01.47.02.7.01.23.03.47.06.7.02.23.06.47.09.7.04.23.08.46.12.69.05.23.1.46.16.69.06.23.12.46.19.68.07.23.14.45.22.67.08.22.16.44.25.66.09.22.19.44.29.65.1.22.21.43.32.64.11.21.23.42.35.63.12.21.25.41.38.62.13.2.27.4.41.6,2.79,3.87,7.63,5.8,12.11,7.67-5.02-.73-10.55-2.73-15.54-1.49h-.03s0,0,0,0v10.98h0s.03.07.03.07c1.1,2.05,2.66,3.73,5.17,5.54,1.25.9,2.35,1.55,3.21,2.8,1.53-.42,2.99-1.29,4.41-1.95-.77,1.76-1.87,2.88-3.69,3.84.04.09.07.19.11.28.03.1.07.19.1.29.03.1.06.19.09.29.03.1.06.19.08.29.03.1.05.19.08.29.02.1.05.2.07.29.02.1.04.2.06.3.02.1.04.2.05.3.02.1.03.2.04.3.01.1.02.2.03.3.01.1.02.2.03.3,0,.1.01.2.02.3,0,.1,0,.2.01.3,0,.1,0,.2,0,.3,0,.1,0,.2,0,.3,0,.1,0,.2-.01.3,0,.1-.01.2-.02.3,0,.1-.02.2-.03.3-.01.1-.02.2-.04.3-.01.1-.03.2-.05.3-.02.1-.04.2-.06.3-.02.1-.04.2-.06.29-.02.1-.05.2-.07.29-.03.1-.05.19-.08.29-.03.1-.06.19-.09.29-.03.1-.06.19-.1.29-.03.1-.07.19-.1.29-.04.09-.07.19-.11.28-.04.09-.08.19-.12.28-.04.09-.08.19-.13.28-.04.09-.09.18-.13.28-.05.09-.09.18-.14.27-1.55,2.9-4.07,5.07-7.48,6.12-.35.11-.7.2-1.05.27h-.03s0,0,0,0v9.31h0s.03,0,.03,0Z"/>
          </g>
          <g>
            <path class="cls-3" d="M76.45,109.37c-1.87-3.03-2.44-6.77-1.17-10.09.4-1.04,1.11-1.99,1.43-3.04,0-.03.02-.06.03-.09-.1-.51-.25-.9-.57-1.34-1.19-.37-2.5-.51-3.71-.82-.13-.02-.05-.02-.24.03-.95,1.52-1.85,2.99-2.65,4.47,4.18,4.81,6.53,11.02,6.53,17.48v4.58h6.87c1.73-.97,3.3-2.7,3.78-4.51-.86-.3-1.78-.48-2.64-.79-3.17-1.14-5.98-3.19-7.65-5.89Z"/>
            <path class="cls-3" d="M90.09,26.49c-1.55.14-3.08.36-4.58.68,1.35.29,2.67.81,4.03,1.62.13-.78.29-1.55.56-2.29Z"/>
            <path class="cls-3" d="M65.64,90.26c-.09-.07-.18-.15-.26-.23-.09-.08-.17-.15-.26-.23-.08-.08-.17-.16-.25-.24-.08-.08-.16-.16-.24-.24-.08-.08-.16-.17-.24-.25-.08-.08-.15-.17-.23-.25-.08-.09-.15-.17-.22-.26-.07-.09-.14-.18-.21-.26-.07-.09-.14-.18-.21-.27-.07-.09-.13-.18-.2-.27-.07-.09-.13-.18-.19-.28-.06-.09-.12-.19-.18-.28-.06-.09-.12-.19-.18-.29-.06-.1-.11-.19-.17-.29-.06-.1-.11-.19-.16-.29-.05-.1-.1-.2-.15-.3-.05-.1-.1-.2-.15-.3-.05-.1-.09-.2-.14-.3-.04-.1-.09-.2-.13-.31-.04-.1-.08-.21-.12-.31-.04-.1-.08-.21-.11-.31-.04-.1-.07-.21-.1-.31-.03-.1-.06-.21-.09-.32-.03-.11-.06-.21-.09-.32-.03-.11-.05-.21-.08-.32-.02-.11-.05-.21-.07-.32-.02-.11-.04-.21-.06-.32-.02-.11-.04-.22-.05-.32-.02-.11-.03-.22-.04-.32-.01-.11-.02-.22-.03-.33,0-.11-.02-.22-.02-.33-.23-4.42,1.85-7.7,5.06-10.86-1.26-.27-2.54-.48-3.79-.8-2.93-.75-5.83-2.02-8.48-3.65,0,.09,0,.18,0,.26,0,6.5,1.59,12.84,4.55,18.49.38.02.77.03,1.18.02l-.07.1c-.19.27-.4.53-.63.77,2.16,3.89,4.98,7.44,8.37,10.46.01,0,.02.02.03.03.73-1.15,1.51-2.28,1.58-3.63-.86-.74-1.99-1.27-2.89-2-.09-.07-.18-.15-.27-.22Z"/>
            <path class="cls-3" d="M93.7,26.33c-.34,0-.68,0-1.02.01-.32.95-.51,1.94-.53,2.98-.04,2.08.51,3.92,1.54,5.59l.03.03v-8.62s-.01,0-.02,0Z"/>
            <path class="cls-3" d="M90.04,116.38c-.66,1.18-1.29,2.42-2.22,3.45-.23.25-.46.5-.72.73h6.61v-4.47h-.03c-1.21.19-2.43.28-3.64.29Z"/>
            <path class="cls-3" d="M90.85,63.88c.95.09,1.9.21,2.82.42,0,0,0,0,0,0h.03s0-4.61,0-4.61l-.03.07c-.59,1.49-1.52,2.87-2.83,4.12Z"/>
            <path class="cls-3" d="M90.45,84.48c-2.31,2.64-3.92,5.52-3.44,8.98.32,2.28,1.72,4.79,3.77,6.2.11.07.22.15.34.22.11.07.23.14.35.2.12.06.24.13.36.19.12.06.24.12.37.17.12.05.25.1.38.15.13.05.26.09.39.14.13.04.26.08.39.12.11.03.22.06.33.08h.03s0-20.75,0-20.75l-.03.05c-.85,1.44-1.96,2.81-3.23,4.26Z"/>
            <path class="cls-3" d="M90.62,34.1c-.4-.79-.75-1.54-1.41-2.19-1.75-1.72-4.24-2.62-6.79-2.72-1.79-.07-3.7.24-5.49.81-1.15.53-2.28,1.12-3.37,1.77.47,1.09.74,2.3.74,3.57,0,4.97-4.03,9-9,9-1.54,0-2.98-.39-4.24-1.06-.04.06-.08.11-.12.17.48.86,1.07,1.67,1.79,2.42,2.7,2.86,5.34,3.64,9.38,3.95-.8.21-1.59.36-2.43.43-3.89.35-6.25-.62-9.19-2.79-1.33,1.18-2.39,2.47-3.15,4-1.65,3.29-1.19,5.85.2,9.09-1.13-1.28-1.97-2.84-2.43-4.47-.51,1.96-.88,3.96-1.09,6,1.79,1.34,3.78,2.46,5.8,3.29,2.28.93,4.67,1.57,7.1,2.1.03-.27.07-.54.12-.8.05-.27.1-.53.17-.8.06-.26.13-.53.21-.79.08-.26.17-.52.26-.77.09-.26.2-.51.31-.76.11-.25.23-.5.35-.75.12-.25.26-.49.4-.73.14-.24.28-.48.44-.71,2.62-3.89,6.7-6.35,11.58-7.43-.41-.26-.8-.53-1.16-.85-2.26-1.99-3.58-4.49-3.61-7.35-.04-3.58,1.67-6.52,3.89-9.39.68-.87,1.38-1.78,2.21-2.53-.84,1.54-1.91,2.85-2.56,4.49-1.32,3.32-2.06,6.7-.29,10.01,1.81,3.4,5.65,4.96,9.39,6.16.02.66.01,1.32,0,1.97-4.52-.37-8.62-.24-12.55,2.11-3.03,1.81-5.29,4.68-5.99,7.91-.73,3.38.26,6.83,2.38,9.66.12.17.25.33.38.5.13.16.27.32.4.48.14.16.28.31.43.46.15.15.3.3.45.45.15.15.31.29.47.43.16.14.32.28.49.41.17.13.34.26.51.39.17.13.35.25.53.37.18.12.36.24.55.35.18.11.37.22.56.33.19.11.38.21.58.31.19.1.39.19.59.28.2.09.4.18.6.26.2.08.41.16.62.24.21.07.42.14.63.21.21.07.42.13.64.19.98.27,2,.42,3,.6-1.1.13-2.21.21-3.31.16-3.92-.16-7.19-1.71-9.81-4.28-1.38-1.42-2.43-2.98-3.06-4.78-1.99,2-3.27,4.39-3.29,7.11-.03,4.96,3.94,8.94,8.95,10.61,1.3.43,4.86.95,5.67,1.79.32.33.51.92.69,1.34.26.6.61,1.35.56,2-.07.88-.88,1.83-1.31,2.61-.69,1.27-1.07,2.61-1.11,4.03-.08,2.71,1.14,5.26,3.21,7.2,2.41,2.26,5.86,3.36,9.29,3.4,1.09.01,2.22-.08,3.35-.29h.03v-9.32h0s-.03,0-.03,0c-.35-.07-.7-.16-1.05-.27-3.41-1.06-5.93-3.22-7.48-6.12-.05-.09-.1-.18-.14-.27-.05-.09-.09-.18-.13-.28-.04-.09-.09-.18-.13-.28-.04-.09-.08-.19-.12-.28-.04-.09-.08-.19-.11-.28-.04-.09-.07-.19-.1-.29-.03-.1-.06-.19-.1-.29-.03-.1-.06-.19-.09-.29-.03-.1-.05-.19-.08-.29-.03-.1-.05-.2-.07-.29-.02-.1-.04-.2-.06-.29-.02-.1-.04-.2-.06-.3-.02-.1-.03-.2-.05-.3-.01-.1-.03-.2-.04-.3-.01-.1-.02-.2-.03-.3,0-.1-.02-.2-.02-.3,0-.1-.01-.2-.01-.3,0-.1,0-.2,0-.3,0-.1,0-.2,0-.3,0-.1,0-.2.01-.3,0-.1.01-.2.02-.3,0-.1.02-.2.03-.3.01-.1.02-.2.03-.3.01-.1.03-.2.04-.3.02-.1.03-.2.05-.3.02-.1.04-.2.06-.3.02-.1.04-.2.07-.29.02-.1.05-.2.08-.29.03-.1.05-.19.08-.29.03-.1.06-.19.09-.29.03-.1.06-.19.1-.29.03-.1.07-.19.11-.28-1.82-.96-2.91-2.08-3.69-3.84,1.42.66,2.88,1.54,4.41,1.95.86-1.25,1.96-1.91,3.21-2.8,2.51-1.81,4.07-3.49,5.17-5.54l.03-.07v-10.98h-.03c-4.99-1.25-10.53.75-15.54,1.49,4.48-1.87,9.32-3.8,12.11-7.67.14-.2.28-.4.41-.6.13-.2.26-.41.38-.62.12-.21.24-.42.35-.63.11-.21.22-.43.32-.64.1-.22.2-.43.29-.65.09-.22.18-.44.25-.66.08-.22.15-.45.22-.67.07-.23.13-.45.19-.68.06-.23.11-.46.16-.69.05-.23.09-.46.12-.69.04-.23.07-.46.09-.7.02-.23.04-.47.06-.7.01-.23.02-.47.02-.7,0-.23,0-.47,0-.7,0-.23-.02-.47-.04-.7-.02-.23-.05-.47-.08-.7-.14-1.15-.43-2.28-.7-3.41.17.31.33.62.48.93.15.31.29.63.43.95.13.32.26.65.37.97.04.12.08.24.12.37l.03.12v-8.32h-.03s0-.01,0-.01c-1.98-.64-4.13-1.04-6.48-1.43,2.05-.3,4.28-.33,6.34-.12.04,0,.09.01.13.02h0s.03,0,.03,0h0v-3.19h-.03c-1.24-.5-2.19-1.07-3.06-2.78Z"/>
          </g>
          <g>
            <circle class="cls-2" cx="65.3" cy="35.34" r="6.45"/>
            <path class="cls-2" d="M135.48,48.72c-2.3-5.38-5.58-10.24-9.75-14.42-4.17-4.18-9.02-7.48-14.39-9.79-5.58-2.4-11.49-3.62-17.54-3.63-.03,0-.06,0-.09,0-6.1,0-12.02,1.19-17.6,3.54-2.16.91-4.23,1.98-6.21,3.2,1.61.96,2.89,2.42,3.64,4.15,6.05-3.55,12.96-5.45,20.16-5.45.02,0,.05,0,.07,0,21.61.04,39.86,18.33,39.84,39.94,0,11.4-4.91,22.28-13.44,29.85-5.64,5-8.87,12.24-8.87,19.86v4.58h-35.21v-4.58c0-7.61-3.25-14.86-8.91-19.9-8.52-7.57-13.4-18.45-13.4-29.84,0-8.35,2.55-16.31,7.27-22.99-1.66-.89-3.01-2.28-3.84-3.98-2.13,2.87-3.9,5.97-5.3,9.29-2.37,5.6-3.57,11.55-3.57,17.68,0,6.59,1.38,12.95,4.11,18.89,2.64,5.74,6.37,10.79,11.11,15.01,4.5,4.01,7.09,9.78,7.09,15.83v10.02h46.09v-10.02c0-6.07,2.57-11.82,7.04-15.79,4.75-4.21,8.5-9.26,11.14-15.01,2.74-5.95,4.13-12.31,4.13-18.91,0-6.06-1.2-11.96-3.59-17.55Z"/>
          </g>
        </g>
      </g>
    </g>
  </g>
</svg>